<svg width="171" height="171" viewBox="0 0 171 171" fill="none" xmlns="http://www.w3.org/2000/svg">
<path d="M157.556 106.605L160.533 109.583L132.69 132.11L109.909 160.207L106.931 157.229L128.658 129.271L157.556 106.605ZM157.556 63.9217L129.114 40.8776L106.931 13.2974C95.1446 1.51079 76.0346 1.51079 64.248 13.2974L41.621 40.8386L13.6237 63.9217C1.83703 75.7084 1.83703 94.8183 13.6237 106.605L41.6486 130.55L64.248 157.229C76.0346 169.016 95.1446 169.016 106.931 157.229L109.909 160.207C96.5828 173.533 75.0413 173.638 61.5866 160.52L61.2701 160.207L39.3476 134.011L10.6458 109.583C-2.78552 96.1516 -2.78552 74.3751 10.6458 60.9438L38.1596 38.5377L61.2701 10.3195L61.5866 10.0069C75.0413 -3.11099 96.5828 -3.00675 109.909 10.3195L132.315 37.8334L160.533 60.9438L160.846 61.2603C173.861 74.6091 173.861 95.9177 160.846 109.266L160.533 109.583L157.556 106.605C169.342 94.8183 169.342 75.7084 157.556 63.9217Z" fill="#46CDCF"/>
</svg>
