<svg width="872" height="199" viewBox="0 0 872 199" fill="none" xmlns="http://www.w3.org/2000/svg">
<path d="M171.556 120.605L174.533 123.583L146.69 146.11L123.909 174.207L120.931 171.229L142.658 143.271L171.556 120.605ZM171.556 77.9217L143.114 54.8776L120.931 27.2974C109.145 15.5108 90.0346 15.5108 78.248 27.2974L55.621 54.8386L27.6237 77.9217C15.837 89.7084 15.837 108.818 27.6237 120.605L55.6486 144.55L78.248 171.229C90.0346 183.016 109.145 183.016 120.931 171.229L123.909 174.207C110.583 187.533 89.0413 187.638 75.5866 174.52L75.2701 174.207L53.3476 148.011L24.6458 123.583C11.2145 110.152 11.2145 88.3751 24.6458 74.9438L52.1596 52.5377L75.2701 24.3195L75.5866 24.0069C89.0413 10.889 110.583 10.9933 123.909 24.3195L146.315 51.8334L174.533 74.9438L174.846 75.2603C187.861 88.6091 187.861 109.918 174.846 123.266L174.533 123.583L171.556 120.605C183.342 108.818 183.342 89.7084 171.556 77.9217Z" fill="#46CDCF"/>
<path d="M228.64 147.674C227.34 147.674 226.257 147.284 225.39 146.504C224.61 145.724 224.22 144.814 224.22 143.774V60.5737C224.22 59.5337 224.61 58.6237 225.39 57.8437C226.17 57.0637 227.08 56.6737 228.12 56.6737H263.22C268.16 56.6737 272.58 57.757 276.48 59.9237C280.38 62.0037 283.413 64.907 285.58 68.6337C287.833 72.3604 288.96 76.5637 288.96 81.2437C288.96 85.057 288.267 88.567 286.88 91.7737C285.493 94.9804 283.543 97.7104 281.03 99.9637C278.517 102.13 275.7 103.734 272.58 104.774L268.03 103.344C271.237 103.604 274.227 104.644 277 106.464C279.773 108.197 281.983 110.624 283.63 113.744C285.363 116.777 286.273 120.46 286.36 124.794C286.447 128.52 286.62 131.424 286.88 133.504C287.227 135.584 287.703 137.144 288.31 138.184C288.917 139.224 289.697 140.047 290.65 140.654C291.517 141.174 292.08 141.91 292.34 142.864C292.687 143.817 292.6 144.727 292.08 145.594C291.733 146.287 291.213 146.807 290.52 147.154C289.913 147.414 289.263 147.544 288.57 147.544C287.877 147.544 287.183 147.37 286.49 147.024C285.277 146.33 284.02 145.247 282.72 143.774C281.507 142.3 280.467 140.134 279.6 137.274C278.82 134.414 278.43 130.427 278.43 125.314C278.43 121.934 277.867 119.16 276.74 116.994C275.7 114.827 274.313 113.18 272.58 112.054C270.933 110.84 269.07 110.017 266.99 109.584C264.997 109.064 263.09 108.804 261.27 108.804H230.98L232.41 106.984V143.774C232.41 144.814 232.063 145.724 231.37 146.504C230.677 147.284 229.767 147.674 228.64 147.674ZM230.98 101.654H263.61C266.557 101.394 269.33 100.44 271.93 98.7937C274.53 97.0604 276.61 94.7204 278.17 91.7737C279.817 88.827 280.64 85.4037 280.64 81.5037C280.64 76.5637 278.95 72.4904 275.57 69.2837C272.277 65.9904 267.943 64.3437 262.57 64.3437H231.5L232.41 62.5237V103.474L230.98 101.654ZM378.925 56.6737C380.138 56.6737 381.092 57.0637 381.785 57.8437C382.478 58.537 382.825 59.447 382.825 60.5737V114.394C382.825 120.807 381.308 126.614 378.275 131.814C375.242 137.014 371.168 141.174 366.055 144.294C360.942 147.327 355.178 148.844 348.765 148.844C342.352 148.844 336.545 147.327 331.345 144.294C326.232 141.174 322.158 137.014 319.125 131.814C316.092 126.614 314.575 120.807 314.575 114.394V60.5737C314.575 59.447 314.922 58.537 315.615 57.8437C316.395 57.0637 317.435 56.6737 318.735 56.6737C319.775 56.6737 320.685 57.0637 321.465 57.8437C322.245 58.537 322.635 59.447 322.635 60.5737V114.394C322.635 119.42 323.805 123.927 326.145 127.914C328.572 131.9 331.778 135.107 335.765 137.534C339.752 139.874 344.085 141.044 348.765 141.044C353.618 141.044 358.038 139.874 362.025 137.534C366.012 135.107 369.175 131.9 371.515 127.914C373.942 123.927 375.155 119.42 375.155 114.394V60.5737C375.155 59.447 375.502 58.537 376.195 57.8437C376.888 57.0637 377.798 56.6737 378.925 56.6737ZM448.201 56.6737C454.614 56.6737 460.204 57.887 464.971 60.3137C469.824 62.7404 473.811 66.1204 476.931 70.4537C480.051 74.7004 482.348 79.5537 483.821 85.0137C485.381 90.4737 486.161 96.1937 486.161 102.174C486.161 110.494 484.774 118.12 482.001 125.054C479.314 131.9 475.154 137.404 469.521 141.564C463.974 145.637 456.868 147.674 448.201 147.674H415.051C414.011 147.674 413.101 147.284 412.321 146.504C411.541 145.724 411.151 144.814 411.151 143.774V60.5737C411.151 59.5337 411.541 58.6237 412.321 57.8437C413.101 57.0637 414.011 56.6737 415.051 56.6737H448.201ZM446.901 140.004C454.268 140.004 460.204 138.314 464.711 134.934C469.218 131.554 472.511 127.004 474.591 121.284C476.758 115.477 477.841 109.107 477.841 102.174C477.841 97.147 477.234 92.3804 476.021 87.8737C474.894 83.2804 473.074 79.2504 470.561 75.7837C468.134 72.2304 464.928 69.457 460.941 67.4637C457.041 65.3837 452.361 64.3437 446.901 64.3437H418.431L419.341 63.1737V141.304L418.561 140.004H446.901ZM572.838 56.6737C574.052 56.6737 575.005 57.0637 575.698 57.8437C576.392 58.537 576.738 59.447 576.738 60.5737V114.394C576.738 120.807 575.222 126.614 572.188 131.814C569.155 137.014 565.082 141.174 559.968 144.294C554.855 147.327 549.092 148.844 542.678 148.844C536.265 148.844 530.458 147.327 525.258 144.294C520.145 141.174 516.072 137.014 513.038 131.814C510.005 126.614 508.488 120.807 508.488 114.394V60.5737C508.488 59.447 508.835 58.537 509.528 57.8437C510.308 57.0637 511.348 56.6737 512.648 56.6737C513.688 56.6737 514.598 57.0637 515.378 57.8437C516.158 58.537 516.548 59.447 516.548 60.5737V114.394C516.548 119.42 517.718 123.927 520.058 127.914C522.485 131.9 525.692 135.107 529.678 137.534C533.665 139.874 537.998 141.044 542.678 141.044C547.532 141.044 551.952 139.874 555.938 137.534C559.925 135.107 563.088 131.9 565.428 127.914C567.855 123.927 569.068 119.42 569.068 114.394V60.5737C569.068 59.447 569.415 58.537 570.108 57.8437C570.802 57.0637 571.712 56.6737 572.838 56.6737ZM609.224 56.6737C610.264 56.6737 611.174 57.0637 611.954 57.8437C612.821 58.6237 613.254 59.577 613.254 60.7037V143.644C613.167 144.77 612.691 145.724 611.824 146.504C611.044 147.284 610.134 147.674 609.094 147.674C607.881 147.674 606.884 147.284 606.104 146.504C605.411 145.724 605.064 144.77 605.064 143.644V60.7037C605.064 59.577 605.454 58.6237 606.234 57.8437C607.014 57.0637 608.011 56.6737 609.224 56.6737ZM670.194 56.6737C671.407 56.6737 672.361 57.0637 673.054 57.8437C673.834 58.6237 674.224 59.577 674.224 60.7037V143.644C674.137 144.77 673.704 145.724 672.924 146.504C672.231 147.284 671.277 147.674 670.064 147.674C668.937 147.674 667.984 147.284 667.204 146.504C666.424 145.724 666.034 144.77 666.034 143.644V60.7037C666.034 59.577 666.424 58.6237 667.204 57.8437C668.071 57.0637 669.067 56.6737 670.194 56.6737ZM608.574 97.3637H670.324L670.194 104.904H608.054L608.574 97.3637ZM766.879 56.6737C768.092 56.6737 769.045 57.0637 769.739 57.8437C770.432 58.537 770.779 59.447 770.779 60.5737V114.394C770.779 120.807 769.262 126.614 766.229 131.814C763.195 137.014 759.122 141.174 754.009 144.294C748.895 147.327 743.132 148.844 736.719 148.844C730.305 148.844 724.499 147.327 719.299 144.294C714.185 141.174 710.112 137.014 707.079 131.814C704.045 126.614 702.529 120.807 702.529 114.394V60.5737C702.529 59.447 702.875 58.537 703.569 57.8437C704.349 57.0637 705.389 56.6737 706.689 56.6737C707.729 56.6737 708.639 57.0637 709.419 57.8437C710.199 58.537 710.589 59.447 710.589 60.5737V114.394C710.589 119.42 711.759 123.927 714.099 127.914C716.525 131.9 719.732 135.107 723.719 137.534C727.705 139.874 732.039 141.044 736.719 141.044C741.572 141.044 745.992 139.874 749.979 137.534C753.965 135.107 757.129 131.9 759.469 127.914C761.895 123.927 763.109 119.42 763.109 114.394V60.5737C763.109 59.447 763.455 58.537 764.149 57.8437C764.842 57.0637 765.752 56.6737 766.879 56.6737ZM837.454 56.6737C844.734 56.6737 850.411 58.667 854.484 62.6537C858.644 66.5537 860.724 72.0137 860.724 79.0337C860.724 82.6737 859.944 86.1404 858.384 89.4337C856.824 92.727 854.528 95.4137 851.494 97.4937C848.461 99.487 844.691 100.614 840.184 100.874L839.664 98.2737C842.871 98.2737 845.991 98.7504 849.024 99.7037C852.144 100.57 854.918 102 857.344 103.994C859.771 105.987 861.721 108.5 863.194 111.534C864.668 114.48 865.404 118.077 865.404 122.324C865.404 126.83 864.624 130.73 863.064 134.024C861.591 137.23 859.554 139.83 856.954 141.824C854.441 143.817 851.538 145.29 848.244 146.244C844.951 147.197 841.528 147.674 837.974 147.674H803.004C801.964 147.674 801.054 147.284 800.274 146.504C799.494 145.724 799.104 144.814 799.104 143.774V60.5737C799.104 59.5337 799.494 58.6237 800.274 57.8437C801.054 57.0637 801.964 56.6737 803.004 56.6737H837.454ZM836.414 64.3437H805.864L807.424 62.0037V98.7937L805.994 96.8437H836.414C840.921 96.757 844.691 95.2837 847.724 92.4237C850.844 89.5637 852.404 85.317 852.404 79.6837C852.404 74.917 851.018 71.1904 848.244 68.5037C845.471 65.7304 841.528 64.3437 836.414 64.3437ZM837.324 104.644H806.774L807.424 103.864V141.174L806.644 140.004H837.584C843.131 140.004 847.768 138.617 851.494 135.844C855.221 132.984 857.084 128.477 857.084 122.324C857.084 117.99 856.174 114.524 854.354 111.924C852.534 109.324 850.108 107.46 847.074 106.334C844.041 105.207 840.791 104.644 837.324 104.644Z" fill="#CDCDCD"/>
</svg>
